<svg xmlns="http://www.w3.org/2000/svg" width="300" height="190" viewBox="0 0 300 190" role="img" aria-labelledby="title desc">
<title id="title">Most used languages</title>
<desc id="desc">Most used languages: TypeScript 55.84 percent, JavaScript 18.97 percent, EJS 8.75 percent, CSS 8.70 percent, HTML 3.45 percent, Rust 2.71 percent, PLpgSQL 1 percent, Astro 0.59 percent.</desc>
<rect x="0.5" y="0.5" width="299" height="189" rx="14" fill="#fffefe" stroke="#e4e2e2"/>
<text x="28" y="34" font-family="Segoe UI,Arial,sans-serif" font-size="18" font-weight="700" fill="#2f80ed">Most Used Languages</text>
<g transform="translate(28 56)">
<rect width="250" height="8" rx="4" fill="#ddd"/>
<rect x="0" width="139.59" height="8" rx="4" fill="#3178c6"/>
<rect x="139.59" width="47.43" height="8" fill="#f1e05a"/>
<rect x="187.02" width="21.87" height="8" fill="#a91e50"/>
<rect x="208.89" width="21.75" height="8" fill="#663399"/>
<rect x="230.64" width="8.61" height="8" fill="#e34c26"/>
<rect x="239.25" width="6.78" height="8" fill="#dea584"/>
<rect x="246.03" width="2.49" height="8" fill="#336790"/>
<rect x="248.52" width="1.48" height="8" fill="#ff5a03"/>
</g>
<g font-family="Segoe UI,Arial,sans-serif" font-size="11" fill="#434d58">
<circle cx="33" cy="92" r="5" fill="#3178c6"/><text x="43" y="96">TypeScript 55.84%</text>
<circle cx="33" cy="117" r="5" fill="#f1e05a"/><text x="43" y="121">JavaScript 18.97%</text>
<circle cx="33" cy="142" r="5" fill="#a91e50"/><text x="43" y="146">EJS 8.75%</text>
<circle cx="33" cy="167" r="5" fill="#663399"/><text x="43" y="171">CSS 8.70%</text>
<circle cx="181" cy="92" r="5" fill="#e34c26"/><text x="191" y="96">HTML 3.45%</text>
<circle cx="181" cy="117" r="5" fill="#dea584"/><text x="191" y="121">Rust 2.71%</text>
<circle cx="181" cy="142" r="5" fill="#336790"/><text x="191" y="146">PLpgSQL 1.00%</text>
<circle cx="181" cy="167" r="5" fill="#ff5a03"/><text x="191" y="171">Astro 0.59%</text>
</g>
</svg>
